<svg width="32" height="32" viewBox="0 0 32 32" fill="none" xmlns="http://www.w3.org/2000/svg">
<path d="M29.8976 12.1576C29.7726 11.7732 29.5366 11.4345 29.2194 11.184C28.9022 10.9335 28.5179 10.7826 28.1151 10.7501L20.7401 10.1551L17.8926 3.26882C17.7386 2.89359 17.4765 2.57263 17.1396 2.34674C16.8027 2.12086 16.4063 2.00024 16.0007 2.00024C15.5951 2.00024 15.1987 2.12086 14.8618 2.34674C14.5249 2.57263 14.2628 2.89359 14.1088 3.26882L11.2638 10.1538L3.88508 10.7501C3.48156 10.7842 3.09707 10.9367 2.7798 11.1883C2.46253 11.44 2.22659 11.7797 2.10153 12.1649C1.97648 12.5501 1.96787 12.9636 2.07679 13.3536C2.18571 13.7437 2.40731 14.0929 2.71383 14.3576L8.33884 19.2113L6.62508 26.4688C6.52924 26.8631 6.55271 27.277 6.69251 27.6579C6.83231 28.0388 7.08214 28.3696 7.41028 28.6083C7.73843 28.847 8.13009 28.9828 8.53555 28.9984C8.94102 29.0141 9.34199 28.909 9.68759 28.6963L16.0001 24.8113L22.3163 28.6963C22.6621 28.9064 23.0622 29.0096 23.4664 28.9927C23.8706 28.9759 24.2608 28.8398 24.5878 28.6016C24.9149 28.3635 25.1641 28.0339 25.3042 27.6544C25.4443 27.2748 25.469 26.8623 25.3751 26.4688L23.6551 19.2101L29.2801 14.3563C29.5891 14.0921 29.8127 13.7421 29.9226 13.3507C30.0326 12.9593 30.0239 12.544 29.8976 12.1576Z" fill="white"/>
</svg>
