<svg width="110" height="32" viewBox="0 0 110 32" fill="none" xmlns="http://www.w3.org/2000/svg">
<g clip-path="url(#clip0_6814_90)">
<path d="M98.7311 22.8079C97.1069 21.7342 97.1069 20.1226 97.2889 18.4665C97.5386 16.2152 97.589 13.9063 99.6623 12.2743C100.835 11.3471 102.179 10.659 103.619 11.0596C105.698 11.6364 107.78 11.2692 109.948 11.4175C110.186 12.8381 109.607 14.1214 109.392 15.4307C108.929 18.231 108.467 21.0369 107.809 23.7964C106.91 27.5555 104.324 29.5343 100.673 29.4749C98.977 29.449 97.4399 29.0762 96.6888 27.435C96.0673 26.0719 96.7081 24.6532 98.4001 23.3031C98.5308 23.1514 98.6419 22.9851 98.7311 22.8079ZM105.174 16.0483C105.284 15.4715 105.344 14.9096 104.626 14.6147C103.726 14.2438 102.946 14.4163 102.365 15.1433C101.718 15.9518 101.701 16.9737 101.558 17.925C101.408 18.9246 102.078 19.4086 103.015 19.5681C103.952 19.7276 104.475 19.1861 104.703 18.4332C104.932 17.6802 105.019 16.8438 105.17 16.0483H105.174ZM103.625 22.6318C102.617 22.5539 101.964 23.0713 101.376 23.6406C100.909 24.0913 100.423 24.6031 100.824 25.3245C100.909 25.5095 101.045 25.6689 101.217 25.7855C101.389 25.9021 101.591 25.9717 101.801 25.9866C102.576 25.9866 102.994 25.4729 103.284 24.8739C103.596 24.2378 103.958 23.585 103.623 22.6318H103.625Z" fill="#28263E"/>
<path d="M5.34697 13.8859C5.7686 13.8806 6.19 13.9073 6.60724 13.9656C9.55563 14.6054 9.55369 14.6129 11.962 12.3355C8.77739 10.6349 5.18629 9.83008 2.23404 7.8031C2.18177 7.76787 2.29018 7.51751 2.356 7.21522C5.39924 7.69183 8.46184 8.12393 11.5031 8.65803C16.6255 9.55933 16.6159 9.58529 20.7742 6.74603C21.5237 6.21802 22.3117 5.74205 23.1321 5.32177C24.0401 4.87298 24.1291 4.92119 25.825 5.25315C26.0921 6.62178 25.0196 7.20966 24.1562 7.97001C23.5483 8.50782 22.352 8.67287 22.6327 9.8783C21.3492 9.37573 20.9504 10.5404 20.0366 11.0096C20.7355 13.3166 21.4208 15.5216 22.0693 17.747C22.3248 18.6334 22.1951 19.2677 20.9813 18.7354L20.9426 18.7206L16.1396 13.7561C13.8649 15.0858 11.4644 15.8739 9.5382 17.224C9.39688 18.1513 10.4171 18.5964 10.1093 19.3678C9.4356 20.0596 8.60123 19.0859 7.94302 19.6275L7.97012 19.5069C8.22566 18.7262 7.55197 18.5648 7.06993 18.3015C5.42828 17.4132 3.77889 16.5397 1.97656 15.5791C3.09939 14.9986 3.99184 16.154 5.2676 15.3714C5.5212 15.1581 5.23662 14.4552 5.37988 13.8544L5.34697 13.8859Z" fill="#28263E"/>
<path d="M39.3161 9.69843C37.4189 9.26633 35.6205 9.66505 33.7194 9.38687C33.5375 8.13508 34.0156 7.02423 34.1647 5.81323H50.5657C50.8077 7.11139 50.1785 8.11839 50.0759 9.31269C48.1593 9.71698 46.2796 9.31269 44.212 9.61683C42.8918 13.7376 42.7427 18.1569 41.5811 22.4278C40.1273 22.756 38.7354 22.6744 37.1673 22.5224C37.7906 18.129 38.9561 13.9786 39.3161 9.69843Z" fill="#28263E"/>
<path d="M20.9329 18.728L20.9716 18.7428C21.7228 20.6456 21.7112 20.6381 20.4451 22.552C18.997 24.7428 17.5632 26.9416 16.1435 29.1485C14.1437 32.2678 13.8456 32.2752 11.931 29.2264C10.2777 26.5948 8.59735 23.98 6.87633 21.2705L0 24.1283C1.4829 21.8454 4.42935 21.2204 5.90451 18.8856C6.56465 18.8856 6.95764 20.2172 7.97012 19.5069L7.94301 19.6274C9.33493 21.4133 9.96603 21.2965 11.991 18.8337C13.1003 18.9746 14.2134 19.2695 15.4311 18.9375C17.0824 18.4869 18.8151 17.9343 20.5032 18.9542C20.5709 18.9932 20.7877 18.8077 20.9329 18.728Z" fill="#EB565A"/>
<path d="M83.3563 18.7707C83.3563 17.658 83.728 16.2263 84.1306 14.8206C84.5778 13.2368 85.722 12.1167 87.2862 11.5177C89.1938 10.7771 91.3145 10.7113 93.2681 11.3322C95.0782 11.8886 95.719 12.7806 95.719 14.5758C95.6912 16.2808 95.3815 17.9708 94.8014 19.583C94.2303 21.252 93.059 22.2738 91.2122 22.6652C89.5338 23.0231 87.8902 23.2586 86.1963 22.7894C83.908 22.1681 83.2692 21.3726 83.3563 18.7707ZM91.4251 16.2448C91.6768 15.2119 91.0554 14.687 90.1803 14.4219C89.3053 14.1567 88.771 14.6759 88.3606 15.3584C87.8863 16.1503 87.7547 17.0274 87.6501 17.9065C87.5854 18.2709 87.6651 18.6454 87.8735 18.9565C88.0819 19.2676 88.404 19.493 88.7768 19.5885C89.7874 19.9056 90.4243 19.3548 90.7689 18.5611C91.0864 17.8286 91.2141 17.02 91.4251 16.2448Z" fill="#28263E"/>
<path d="M77.3203 19.1972C76.0368 18.4646 74.9469 18.4368 73.8782 18.2829C71.7003 17.9713 70.6608 17.2221 70.4439 15.8924C70.1594 14.1881 71.0867 12.5135 72.8793 11.7272C75.396 10.6256 77.9978 10.7091 80.5765 11.4806C81.108 11.6404 81.5649 11.9725 81.8687 12.4199C82.1725 12.8672 82.3042 13.4019 82.2413 13.9322C82.1755 14.6444 81.8542 15.2749 81.0314 15.2304C79.9202 15.1822 78.7935 15.6124 77.721 14.6017C76.8053 13.7393 75.9787 14.0546 74.6933 15.2248C75.6612 16.0297 76.8963 15.9666 78.0056 16.165C80.3867 16.6009 81.2637 17.2574 81.3741 18.83C81.496 20.5454 80.3538 21.953 78.354 22.539C76.1084 23.2048 73.8473 23.3105 71.6113 22.539C69.9851 21.9826 69.6889 21.3187 70.0239 19.2009C71.4855 19.1749 72.9432 18.83 74.4106 19.6089C75.274 20.0985 75.5857 19.9297 77.3203 19.1972Z" fill="#28263E"/>
<path d="M51.3754 11.6104C52.2988 11.1839 52.9841 11.3656 53.6404 11.3842C54.9684 11.4194 56.188 11.8923 57.607 11.1079C58.8654 10.4124 60.5496 11.1913 61.1904 12.1798C61.7518 13.0458 61.5156 15.6403 60.7626 16.3413C60.521 16.5599 60.2075 16.6911 59.8759 16.7122C58.966 16.7289 58.0252 16.9829 57.2141 16.5601C56.6681 15.9704 57.4696 15.4474 57.1715 14.917C55.1872 14.6166 55.1078 14.6277 54.7651 16.2393C54.345 18.2218 54.0063 20.2191 53.6171 22.2961C52.262 22.8284 50.8914 22.7171 49.3311 22.4537C50.028 18.7614 50.6978 15.2026 51.3754 11.6104Z" fill="#28263E"/>
<path d="M26.2608 2.1097C24.9212 3.62669 22.9252 4.25166 21.3281 5.42742C20.4221 6.09318 19.5858 5.46265 18.7882 4.96564C16.1825 3.35407 13.4219 3.11113 10.5529 4.22384C9.461 4.68263 8.46625 5.32944 7.61804 6.13213C6.4565 7.17622 5.27947 7.17622 3.87207 6.47521C4.00565 5.37734 4.59223 4.6207 5.34529 3.96606C9.20549 0.603834 14.4673 -0.696178 19.4251 1.79814C21.3359 2.76248 23.0182 3.52098 25.0257 2.18944C25.318 2.00399 25.8388 2.12082 26.255 2.09857L26.2608 2.1097Z" fill="#EB565A"/>
<path d="M66.9321 19.1972C68.1305 19.4383 68.6957 20.0595 68.4712 21.2705C68.266 22.3721 67.3968 22.6855 66.5237 22.9396C64.0438 23.6814 62.1369 22.1514 62.4583 19.6942C62.8164 16.9662 63.2326 14.2456 63.9741 11.5343C65.2808 11.2599 66.5198 11.4138 67.9601 11.4379C67.9078 14.0379 66.9379 16.4043 66.9321 19.1972Z" fill="#28263E"/>
<path d="M22.6331 9.88197C23.2139 9.9988 23.5236 9.51107 23.9727 9.32562C24.4219 9.14016 24.7142 8.65243 25.5215 8.72661C25.9551 11.9868 25.9938 15.121 23.0687 17.9584C22.1975 15.0598 21.8026 12.5042 22.6447 9.88197H22.6331Z" fill="#EB565A"/>
<path d="M64.4324 7.3617C64.4925 5.57581 65.5282 4.55026 67.2298 4.58921C68.5617 4.62073 69.5529 5.54428 69.5006 6.7052C69.4406 8.07383 68.0836 9.34417 66.6762 9.34788C65.1797 9.35344 64.3879 8.65986 64.4324 7.3617Z" fill="#28263E"/>
<path d="M5.37994 13.8525C4.35584 13.4259 4.1216 14.8001 3.18656 14.7964C1.99791 13.1589 2.30572 11.4156 2.46059 9.65942C5.53287 10.0767 5.94522 10.7017 5.34703 13.884L5.37994 13.8525Z" fill="#EB565A"/>
<path d="M26.2549 2.10417C26.3497 1.41614 26.8744 1.62941 27.3041 1.64425L27.2654 1.61087C27.0854 2.06337 26.6847 2.119 26.2607 2.10973L26.2549 2.10417Z" fill="#EB565A"/>
<path d="M27.2965 1.64422C27.2172 1.45877 27.3701 1.2251 27.4534 1.29001C27.8715 1.62196 27.3295 1.49957 27.2598 1.61084L27.2965 1.64422Z" fill="#EB565A"/>
</g>
<defs>
<clipPath id="clip0_6814_90">
<rect width="110" height="31" fill="white" transform="translate(0 0.5)"/>
</clipPath>
</defs>
</svg>
