<svg width="112" height="33" viewBox="0 0 112 33" fill="none" xmlns="http://www.w3.org/2000/svg">
<g clip-path="url(#clip0_6813_1152)">
<path d="M100.526 23.7C98.8727 22.5916 98.8727 20.928 99.0579 19.2185C99.3122 16.8945 99.3635 14.5112 101.475 12.8265C102.669 11.8694 104.037 11.1592 105.503 11.5727C107.62 12.168 109.739 11.789 111.947 11.9421C112.189 13.4085 111.6 14.7332 111.381 16.0847C110.91 18.9754 110.439 21.8718 109.769 24.7203C108.854 28.6007 106.221 30.6433 102.503 30.582C100.777 30.5552 99.2117 30.1704 98.4469 28.4762C97.8142 27.0692 98.4666 25.6047 100.189 24.2111C100.322 24.0545 100.436 23.8828 100.526 23.7ZM107.086 16.7222C107.199 16.1269 107.26 15.5468 106.528 15.2424C105.612 14.8596 104.818 15.0376 104.226 15.788C103.568 16.6227 103.55 17.6775 103.404 18.6595C103.252 19.6913 103.934 20.191 104.888 20.3556C105.842 20.5203 106.375 19.9613 106.607 19.184C106.84 18.4068 106.929 17.5435 107.082 16.7222H107.086ZM105.509 23.5181C104.482 23.4377 103.818 23.9718 103.219 24.5595C102.744 25.0247 102.249 25.553 102.657 26.2977C102.744 26.4887 102.882 26.6532 103.057 26.7736C103.233 26.894 103.438 26.9657 103.653 26.9811C104.441 26.9811 104.867 26.4509 105.162 25.8325C105.48 25.1759 105.848 24.5021 105.507 23.5181H105.509Z" fill="white"/>
<path d="M5.44438 14.4901C5.87368 14.4846 6.30275 14.5122 6.72757 14.5724C9.72956 15.2329 9.72759 15.2405 12.1796 12.8897C8.93718 11.1343 5.28078 10.3034 2.27485 8.21108C2.22163 8.17471 2.33201 7.91627 2.39903 7.60424C5.4976 8.09622 8.61589 8.54226 11.7125 9.09359C16.928 10.024 16.9182 10.0508 21.1521 7.11991C21.9152 6.57486 22.7176 6.08354 23.5529 5.6497C24.4773 5.18644 24.568 5.23621 26.2947 5.57887C26.5667 6.99165 25.4747 7.5985 24.5956 8.38337C23.9767 8.93853 22.7585 9.1089 23.0444 10.3532C21.7375 9.83444 21.3315 11.0366 20.4011 11.521C21.1127 13.9024 21.8104 16.1785 22.4708 18.4757C22.731 19.3908 22.5989 20.0455 21.363 19.4961L21.3236 19.4808L16.4333 14.3561C14.1172 15.7287 11.6731 16.5423 9.71182 17.9359C9.56793 18.8931 10.6067 19.3525 10.2933 20.1489C9.60735 20.8629 8.75781 19.8579 8.08763 20.4169L8.11523 20.2924C8.37541 19.4865 7.68947 19.32 7.19867 19.0481C5.52717 18.1312 3.84779 17.2295 2.0127 16.2379C3.15593 15.6387 4.06461 16.8313 5.36357 16.0235C5.62178 15.8033 5.33203 15.0778 5.47789 14.4576L5.44438 14.4901Z" fill="white"/>
<path d="M40.0309 10.1675C38.0993 9.72147 36.2681 10.1331 34.3325 9.8459C34.1472 8.55373 34.6341 7.40704 34.7858 6.15698H51.485C51.7314 7.49702 51.0908 8.5365 50.9863 9.76933C49.0349 10.1867 47.121 9.76933 45.0159 10.0833C43.6716 14.3369 43.5198 18.8988 42.3371 23.3075C40.8568 23.6463 39.4396 23.5621 37.843 23.4051C38.4777 18.8701 39.6643 14.5858 40.0309 10.1675Z" fill="white"/>
<path d="M21.3135 19.4883L21.353 19.5036C22.1177 21.4677 22.1059 21.4601 20.8168 23.4357C19.3424 25.6971 17.8825 27.9669 16.437 30.245C14.4009 33.4649 14.0973 33.4725 12.1479 30.3254C10.4646 27.6089 8.75367 24.9097 7.00136 22.1129L0 25.0629C1.50986 22.7063 4.50988 22.0612 6.01186 19.651C6.68401 19.651 7.08414 21.0255 8.11503 20.2923L8.08743 20.4168C9.50465 22.2603 10.1472 22.1397 12.209 19.5974C13.3384 19.7429 14.4718 20.0473 15.7117 19.7046C17.393 19.2395 19.1571 18.669 20.8759 19.7219C20.9449 19.7621 21.1657 19.5706 21.3135 19.4883Z" fill="#EB565A"/>
<path d="M84.872 19.5324C84.872 18.3838 85.2505 16.906 85.6605 15.4549C86.1158 13.8201 87.2807 12.6638 88.8734 12.0455C90.8157 11.2809 92.9749 11.2131 94.9641 11.854C96.8071 12.4283 97.4595 13.3491 97.4595 15.2022C97.4313 16.9622 97.1159 18.7068 96.5252 20.3709C95.9437 22.0938 94.7512 23.1486 92.8708 23.5525C91.1618 23.922 89.4884 24.1651 87.7637 23.6808C85.4338 23.0395 84.7833 22.2182 84.872 19.5324ZM93.0876 16.9251C93.3439 15.8588 92.7111 15.3171 91.8202 15.0433C90.9292 14.7696 90.3852 15.3056 89.9673 16.0101C89.4844 16.8275 89.3504 17.733 89.244 18.6403C89.1781 19.0165 89.2592 19.4031 89.4714 19.7242C89.6836 20.0454 90.0116 20.2781 90.3911 20.3766C91.4201 20.704 92.0685 20.1354 92.4194 19.3161C92.7427 18.5599 92.8728 17.7253 93.0876 16.9251Z" fill="white"/>
<path d="M78.7257 19.9726C77.4188 19.2165 76.3091 19.1878 75.2211 19.0289C73.0036 18.7073 71.9451 17.9339 71.7243 16.5613C71.4346 14.802 72.3787 13.0734 74.204 12.2617C76.7664 11.1246 79.4156 11.2107 82.0411 12.0071C82.5823 12.1721 83.0475 12.5149 83.3568 12.9767C83.6661 13.4385 83.8003 13.9905 83.7362 14.5378C83.6692 15.2729 83.342 15.9238 82.5043 15.8779C81.3729 15.8281 80.2257 16.2722 79.1337 15.2289C78.2014 14.3387 77.3597 14.6642 76.0509 15.8721C77.0364 16.703 78.294 16.6379 79.4234 16.8427C81.8479 17.2926 82.7408 17.9702 82.8532 19.5936C82.9773 21.3644 81.8144 22.8173 79.7782 23.4223C77.4918 24.1095 75.1895 24.2186 72.9129 23.4223C71.2572 22.848 70.9556 22.1626 71.2966 19.9765C72.7848 19.9497 74.269 19.5936 75.7631 20.3976C76.6422 20.903 76.9596 20.7288 78.7257 19.9726Z" fill="white"/>
<path d="M52.309 12.1411C53.2492 11.7008 53.947 11.8884 54.6152 11.9075C55.9674 11.9439 57.2092 12.4321 58.654 11.6223C59.9352 10.9044 61.6501 11.7084 62.3025 12.7288C62.8741 13.6228 62.6337 16.3009 61.8669 17.0245C61.621 17.2502 61.3017 17.3856 60.9641 17.4074C60.0377 17.4246 59.0798 17.6869 58.2539 17.2504C57.698 16.6417 58.5141 16.1018 58.2105 15.5543C56.1901 15.2442 56.1093 15.2557 55.7604 16.9192C55.3327 18.9657 54.9877 21.0274 54.5916 23.1715C53.2118 23.7209 51.8162 23.606 50.2275 23.3342C50.9371 19.5227 51.6191 15.8491 52.309 12.1411Z" fill="white"/>
<path d="M26.7382 2.33391C25.3742 3.89983 23.342 4.54496 21.7158 5.75865C20.7933 6.44589 19.9418 5.79502 19.1297 5.28198C16.4766 3.61842 13.6658 3.36765 10.7447 4.51625C9.63293 4.98984 8.6201 5.65751 7.75647 6.4861C6.5738 7.56387 5.37537 7.56387 3.94238 6.84025C4.07839 5.70696 4.67563 4.92591 5.44239 4.25015C9.37277 0.779468 14.7302 -0.56248 19.7782 2.0123C21.7237 3.00775 23.4366 3.79071 25.4806 2.41622C25.7783 2.22479 26.3085 2.34539 26.7323 2.32242L26.7382 2.33391Z" fill="#EB565A"/>
<path d="M68.1489 19.9726C69.369 20.2215 69.9446 20.8628 69.7159 22.1129C69.507 23.25 68.6219 23.5735 67.733 23.8358C65.208 24.6015 63.2665 23.0222 63.5937 20.4857C63.9583 17.6697 64.3821 14.8614 65.137 12.0626C66.4675 11.7793 67.729 11.9382 69.1955 11.9631C69.1423 14.647 68.1548 17.0896 68.1489 19.9726Z" fill="white"/>
<path d="M23.0437 10.357C23.635 10.4776 23.9504 9.97412 24.4077 9.78268C24.865 9.59125 25.1626 9.08778 25.9846 9.16435C26.4261 12.5298 26.4655 15.765 23.4872 18.6939C22.6002 15.7018 22.1981 13.0639 23.0555 10.357H23.0437Z" fill="#EB565A"/>
<path d="M65.6044 7.75537C65.6655 5.91186 66.72 4.85324 68.4526 4.89344C69.8087 4.92598 70.8179 5.87932 70.7647 7.07769C70.7036 8.49047 69.3219 9.80179 67.8889 9.80562C66.3652 9.81136 65.559 9.0954 65.6044 7.75537Z" fill="white"/>
<path d="M5.47781 14.4555C4.4351 14.0152 4.19659 15.4337 3.24455 15.4299C2.03429 13.7395 2.3477 11.9401 2.50539 10.1272C5.63353 10.5579 6.05337 11.2031 5.4443 14.488L5.47781 14.4555Z" fill="#EB565A"/>
<path d="M26.7324 2.32814C26.829 1.61793 27.3632 1.83807 27.8008 1.85339L27.7613 1.81893C27.578 2.28603 27.17 2.34346 26.7383 2.33389L26.7324 2.32814Z" fill="#EB565A"/>
<path d="M27.7923 1.85339C27.7115 1.66196 27.8672 1.42075 27.952 1.48775C28.3778 1.83042 27.8258 1.70407 27.7549 1.81893L27.7923 1.85339Z" fill="#EB565A"/>
</g>
<defs>
<clipPath id="clip0_6813_1152">
<rect width="112" height="32" fill="white" transform="translate(0 0.672363)"/>
</clipPath>
</defs>
</svg>
